<svg xmlns="http://www.w3.org/2000/svg" xlink="http://www.w3.org/1999/xlink" width="0" height="0" style="display:none;"><symbol viewBox="0 0 24 24" id="bold"><path fill="none" d="M0 0h24v24H0z"/><path d="M8 11h4.5a2.5 2.5 0 1 0 0-5H8v5zm10 4.5a4.5 4.5 0 0 1-4.5 4.5H6V4h6.5a4.5 4.5 0 0 1 3.256 7.606A4.498 4.498 0 0 1 18 15.5zM8 13v5h5.5a2.5 2.5 0 1 0 0-5H8z"/></symbol><symbol viewBox="0 0 24 24" id="italic"><path fill="none" d="M0 0h24v24H0z"/><path d="M15 20H7v-2h2.927l2.116-12H9V4h8v2h-2.927l-2.116 12H15z"/></symbol><symbol viewBox="0 0 24 24" id="strikethrough"><path fill="none" d="M0 0h24v24H0z"/><path d="M17.154 14c.23.516.346 1.09.346 1.72 0 1.342-.524 2.392-1.571 3.147C14.88 19.622 13.433 20 11.586 20c-1.64 0-3.263-.381-4.87-1.144V16.6c1.52.877 3.075 1.316 4.666 1.316 2.551 0 3.83-.732 3.839-2.197a2.21 2.21 0 0 0-.648-1.603l-.12-.117H3v-2h18v2h-3.846zm-4.078-3H7.629a4.086 4.086 0 0 1-.481-.522C6.716 9.92 6.5 9.246 6.5 8.452c0-1.236.466-2.287 1.397-3.153C8.83 4.433 10.271 4 12.222 4c1.471 0 2.879.328 4.222.984v2.152c-1.2-.687-2.515-1.03-3.946-1.03-2.48 0-3.719.782-3.719 2.346 0 .42.218.786.654 1.099.436.313.974.562 1.613.75.62.18 1.297.414 2.03.699z"/></symbol><symbol viewBox="0 0 24 24" id="underline"><path fill="none" d="M0 0h24v24H0z"/><path d="M8 3v9a4 4 0 1 0 8 0V3h2v9a6 6 0 1 1-12 0V3h2zM4 20h16v2H4v-2z"/></symbol><symbol viewBox="0 0 24 24" id="list-unordered"><path fill="none" d="M0 0h24v24H0z"/><path d="M8 4h13v2H8V4zM4.5 6.5a1.5 1.5 0 1 1 0-3 1.5 1.5 0 0 1 0 3zm0 7a1.5 1.5 0 1 1 0-3 1.5 1.5 0 0 1 0 3zm0 6.9a1.5 1.5 0 1 1 0-3 1.5 1.5 0 0 1 0 3zM8 11h13v2H8v-2zm0 7h13v2H8v-2z"/></symbol><symbol viewBox="0 0 24 24" id="list-ordered"><path fill="none" d="M0 0h24v24H0z"/><path d="M8 4h13v2H8V4zM5 3v3h1v1H3V6h1V4H3V3h2zM3 14v-2.5h2V11H3v-1h3v2.5H4v.5h2v1H3zm2 5.5H3v-1h2V18H3v-1h3v4H3v-1h2v-.5zM8 11h13v2H8v-2zm0 7h13v2H8v-2z"/></symbol><symbol viewBox="0 0 24 24" id="separator"><path fill="none" d="M0 0h24v24H0z"/><path d="M2 11h2v2H2v-2zm4 0h12v2H6v-2zm14 0h2v2h-2v-2z"/></symbol><symbol viewBox="0 0 24 24" id="double-quotes-r"><path fill="none" d="M0 0h24v24H0z"/><path d="M19.417 6.679C20.447 7.773 21 9 21 10.989c0 3.5-2.457 6.637-6.03 8.188l-.893-1.378c3.335-1.804 3.987-4.145 4.247-5.621-.537.278-1.24.375-1.929.311-1.804-.167-3.226-1.648-3.226-3.489a3.5 3.5 0 0 1 3.5-3.5c1.073 0 2.099.49 2.748 1.179zm-10 0C10.447 7.773 11 9 11 10.989c0 3.5-2.457 6.637-6.03 8.188l-.893-1.378c3.335-1.804 3.987-4.145 4.247-5.621-.537.278-1.24.375-1.929.311C4.591 12.322 3.17 10.841 3.17 9a3.5 3.5 0 0 1 3.5-3.5c1.073 0 2.099.49 2.748 1.179z"/></symbol><symbol viewBox="0 0 24 24" id="arrow-go-forward-line"><path fill="none" d="M0 0h24v24H0z"/><path d="M18.172 7H11a6 6 0 1 0 0 12h9v2h-9a8 8 0 1 1 0-16h7.172l-2.536-2.536L17.05 1.05 22 6l-4.95 4.95-1.414-1.414L18.172 7z"/></symbol><symbol viewBox="0 0 24 24" id="arrow-go-back-line"><path fill="none" d="M0 0h24v24H0z"/><path d="M5.828 7l2.536 2.536L6.95 10.95 2 6l4.95-4.95 1.414 1.414L5.828 5H13a8 8 0 1 1 0 16H4v-2h9a6 6 0 1 0 0-12H5.828z"/></symbol><symbol viewBox="0 0 24 24" id="moon-clear-line"><path fill="none" d="M0 0h24v24H0z"/><path d="M10 6a8 8 0 0 0 11.955 6.956C21.474 18.03 17.2 22 12 22 6.477 22 2 17.523 2 12c0-5.2 3.97-9.474 9.044-9.955A7.963 7.963 0 0 0 10 6zm-6 6a8 8 0 0 0 8 8 8.006 8.006 0 0 0 6.957-4.045c-.316.03-.636.045-.957.045-5.523 0-10-4.477-10-10 0-.321.015-.64.045-.957A8.006 8.006 0 0 0 4 12zm14.164-9.709L19 2.5v1l-.836.209a2 2 0 0 0-1.455 1.455L16.5 6h-1l-.209-.836a2 2 0 0 0-1.455-1.455L13 3.5v-1l.836-.209A2 2 0 0 0 15.29.836L15.5 0h1l.209.836a2 2 0 0 0 1.455 1.455zm5 5L24 7.5v1l-.836.209a2 2 0 0 0-1.455 1.455L21.5 11h-1l-.209-.836a2 2 0 0 0-1.455-1.455L18 8.5v-1l.836-.209a2 2 0 0 0 1.455-1.455L20.5 5h1l.209.836a2 2 0 0 0 1.455 1.455z"/></symbol><symbol viewBox="0 0 24 24" id="sun-fill"><path fill="none" d="M0 0h24v24H0z"/><path d="M12 18a6 6 0 1 1 0-12 6 6 0 0 1 0 12zM11 1h2v3h-2V1zm0 19h2v3h-2v-3zM3.515 4.929l1.414-1.414L7.05 5.636 5.636 7.05 3.515 4.93zM16.95 18.364l1.414-1.414 2.121 2.121-1.414 1.414-2.121-2.121zm2.121-14.85l1.414 1.415-2.121 2.121-1.414-1.414 2.121-2.121zM5.636 16.95l1.414 1.414-2.121 2.121-1.414-1.414 2.121-2.121zM23 11v2h-3v-2h3zM4 11v2H1v-2h3z"/></symbol><symbol viewBox="0 0 24 24" id="folders-line"><path fill="none" d="M0 0h24v24H0z"/><path d="M6 7V4a1 1 0 0 1 1-1h6.414l2 2H21a1 1 0 0 1 1 1v10a1 1 0 0 1-1 1h-3v3a1 1 0 0 1-1 1H3a1 1 0 0 1-1-1V8a1 1 0 0 1 1-1h3zm0 2H4v10h12v-2H6V9zm2-4v10h12V7h-5.414l-2-2H8z"/></symbol><symbol viewBox="0 0 24 24" id="bar-chart-2-line"><path fill="none" d="M0 0h24v24H0z"/><path d="M2 13h6v8H2v-8zm14-5h6v13h-6V8zM9 3h6v18H9V3zM4 15v4h2v-4H4zm7-10v14h2V5h-2zm7 5v9h2v-9h-2z"/></symbol><symbol viewBox="0 0 24 24" id="search-line"><path fill="none" d="M0 0h24v24H0z"/><path d="M18.031 16.617l4.283 4.282-1.415 1.415-4.282-4.283A8.96 8.96 0 0 1 11 20c-4.968 0-9-4.032-9-9s4.032-9 9-9 9 4.032 9 9a8.96 8.96 0 0 1-1.969 5.617zm-2.006-.742A6.977 6.977 0 0 0 18 11c0-3.868-3.133-7-7-7-3.868 0-7 3.132-7 7 0 3.867 3.132 7 7 7a6.977 6.977 0 0 0 4.875-1.975l.15-.15z"/></symbol><symbol viewBox="0 0 24 24" id="store-2-line"><path fill="none" d="M0 0h24v24H0z"/><path d="M21 13.242V20h1v2H2v-2h1v-6.758A4.496 4.496 0 0 1 1 9.5c0-.827.224-1.624.633-2.303L4.345 2.5a1 1 0 0 1 .866-.5H18.79a1 1 0 0 1 .866.5l2.702 4.682A4.496 4.496 0 0 1 21 13.242zm-2 .73a4.496 4.496 0 0 1-3.75-1.36A4.496 4.496 0 0 1 12 14.001a4.496 4.496 0 0 1-3.25-1.387A4.496 4.496 0 0 1 5 13.973V20h14v-6.027zM5.789 4L3.356 8.213a2.5 2.5 0 0 0 4.466 2.216c.335-.837 1.52-.837 1.856 0a2.5 2.5 0 0 0 4.644 0c.335-.837 1.52-.837 1.856 0a2.5 2.5 0 1 0 4.457-2.232L18.21 4H5.79z"/></symbol><symbol viewBox="0 0 24 24" id="facebook-circle-fill"><path fill="none" d="M0 0h24v24H0z"/><path d="M12 2C6.477 2 2 6.477 2 12c0 4.991 3.657 9.128 8.438 9.879V14.89h-2.54V12h2.54V9.797c0-2.506 1.492-3.89 3.777-3.89 1.094 0 2.238.195 2.238.195v2.46h-1.26c-1.243 0-1.63.771-1.63 1.562V12h2.773l-.443 2.89h-2.33v6.989C18.343 21.129 22 16.99 22 12c0-5.523-4.477-10-10-10z"/></symbol><symbol viewBox="0 0 24 24" id="shopping-bag-line"><path fill="none" d="M0 0h24v24H0z"/><path d="M7 8V6a5 5 0 1 1 10 0v2h3a1 1 0 0 1 1 1v12a1 1 0 0 1-1 1H4a1 1 0 0 1-1-1V9a1 1 0 0 1 1-1h3zm0 2H5v10h14V10h-2v2h-2v-2H9v2H7v-2zm2-2h6V6a3 3 0 0 0-6 0v2z"/></symbol><symbol viewBox="0 0 24 24" id="add-line"><path fill="none" d="M0 0h24v24H0z"/><path d="M11 11V5h2v6h6v2h-6v6h-2v-6H5v-2z"/></symbol><symbol viewBox="0 0 24 24" id="subtract-line"><path fill="none" d="M0 0h24v24H0z"/><path d="M5 11h14v2H5z"/></symbol><symbol viewBox="0 0 24 24" id="delete-bin-line"><path fill="none" d="M0 0h24v24H0z"/><path d="M17 6h5v2h-2v13a1 1 0 0 1-1 1H5a1 1 0 0 1-1-1V8H2V6h5V3a1 1 0 0 1 1-1h8a1 1 0 0 1 1 1v3zm1 2H6v12h12V8zm-9 3h2v6H9v-6zm4 0h2v6h-2v-6zM9 4v2h6V4H9z"/></symbol><symbol viewBox="0 0 24 24" id="newspaper-line"><path fill="none" d="M0 0h24v24H0z"/><path d="M16 20V4H4v15a1 1 0 0 0 1 1h11zm3 2H5a3 3 0 0 1-3-3V3a1 1 0 0 1 1-1h14a1 1 0 0 1 1 1v7h4v9a3 3 0 0 1-3 3zm-1-10v7a1 1 0 0 0 2 0v-7h-2zM6 6h6v6H6V6zm2 2v2h2V8H8zm-2 5h8v2H6v-2zm0 3h8v2H6v-2z"/></symbol><symbol viewBox="0 0 24 24" id="arrow-left-line"><path fill="none" d="M0 0h24v24H0z"/><path d="M7.828 11H20v2H7.828l5.364 5.364-1.414 1.414L4 12l7.778-7.778 1.414 1.414z"/></symbol><symbol viewBox="0 0 24 24" id="questionnaire-line"><path fill="none" d="M0 0h24v24H0z"/><path d="M5.763 17H20V5H4v13.385L5.763 17zm.692 2L2 22.5V4a1 1 0 0 1 1-1h18a1 1 0 0 1 1 1v14a1 1 0 0 1-1 1H6.455zM11 14h2v2h-2v-2zM8.567 8.813A3.501 3.501 0 1 1 12 13h-1v-2h1a1.5 1.5 0 1 0-1.471-1.794l-1.962-.393z"/></symbol><symbol viewBox="0 0 24 24" id="logout-box-r-line"><path fill="none" d="M0 0h24v24H0z"/><path d="M5 22a1 1 0 0 1-1-1V3a1 1 0 0 1 1-1h14a1 1 0 0 1 1 1v3h-2V4H6v16h12v-2h2v3a1 1 0 0 1-1 1H5zm13-6v-3h-7v-2h7V8l5 4-5 4z"/></symbol><symbol viewBox="0 0 24 24" id="pencil-line"><path fill="none" d="M0 0h24v24H0z"/><path d="M15.728 9.686l-1.414-1.414L5 17.586V19h1.414l9.314-9.314zm1.414-1.414l1.414-1.414-1.414-1.414-1.414 1.414 1.414 1.414zM7.242 21H3v-4.243L16.435 3.322a1 1 0 0 1 1.414 0l2.829 2.829a1 1 0 0 1 0 1.414L7.243 21z"/></symbol><symbol viewBox="0 0 24 24" id="more-2-fill"><path fill="none" d="M0 0h24v24H0z"/><path d="M12 3c-1.1 0-2 .9-2 2s.9 2 2 2 2-.9 2-2-.9-2-2-2zm0 14c-1.1 0-2 .9-2 2s.9 2 2 2 2-.9 2-2-.9-2-2-2zm0-7c-1.1 0-2 .9-2 2s.9 2 2 2 2-.9 2-2-.9-2-2-2z"/></symbol><symbol viewBox="0 0 24 24" id="menu-fold-line"><path fill="none" d="M0 0H24V24H0z"/><path d="M21 18v2H3v-2h18zM6.596 3.904L8.01 5.318 4.828 8.5l3.182 3.182-1.414 1.414L2 8.5l4.596-4.596zM21 11v2h-9v-2h9zm0-7v2h-9V4h9z"/></symbol><symbol viewBox="0 0 24 24" id="menu-unfold-line"><path fill="none" d="M0 0H24V24H0z"/><path d="M21 18v2H3v-2h18zM17.404 3.904L22 8.5l-4.596 4.596-1.414-1.414L19.172 8.5 15.99 5.318l1.414-1.414zM12 11v2H3v-2h9zm0-7v2H3V4h9z"/></symbol><symbol viewBox="0 0 24 24" id="arrow-right-s-line"><path fill="none" d="M0 0h24v24H0z"/><path d="M13.172 12l-4.95-4.95 1.414-1.414L16 12l-6.364 6.364-1.414-1.414z"/></symbol><symbol viewBox="0 0 24 24" id="arrow-left-s-line"><path fill="none" d="M0 0h24v24H0z"/><path d="M10.828 12l4.95 4.95-1.414 1.414L8 12l6.364-6.364 1.414 1.414z"/></symbol><symbol viewBox="0 0 24 24" id="filter-3-line"><path fill="none" d="M0 0h24v24H0z"/><path d="M10 18h4v-2h-4v2zM3 6v2h18V6H3zm3 7h12v-2H6v2z"/></symbol><symbol viewBox="0 0 24 24" id="user-line"><path fill="none" d="M0 0h24v24H0z"/><path d="M4 22a8 8 0 1 1 16 0h-2a6 6 0 1 0-12 0H4zm8-9c-3.315 0-6-2.685-6-6s2.685-6 6-6 6 2.685 6 6-2.685 6-6 6zm0-2c2.21 0 4-1.79 4-4s-1.79-4-4-4-4 1.79-4 4 1.79 4 4 4z"/></symbol><symbol viewBox="0 0 24 24" id="lock-line"><path fill="none" d="M0 0h24v24H0z"/><path d="M19 10h1a1 1 0 0 1 1 1v10a1 1 0 0 1-1 1H4a1 1 0 0 1-1-1V11a1 1 0 0 1 1-1h1V9a7 7 0 1 1 14 0v1zM5 12v8h14v-8H5zm6 2h2v4h-2v-4zm6-4V9A5 5 0 0 0 7 9v1h10z"/></symbol><symbol viewBox="0 0 24 24" id="eye-line"><path fill="none" d="M0 0h24v24H0z"/><path d="M12 3c5.392 0 9.878 3.88 10.819 9-.94 5.12-5.427 9-10.819 9-5.392 0-9.878-3.88-10.819-9C2.121 6.88 6.608 3 12 3zm0 16a9.005 9.005 0 0 0 8.777-7 9.005 9.005 0 0 0-17.554 0A9.005 9.005 0 0 0 12 19zm0-2.5a4.5 4.5 0 1 1 0-9 4.5 4.5 0 0 1 0 9zm0-2a2.5 2.5 0 1 0 0-5 2.5 2.5 0 0 0 0 5z"/></symbol><symbol viewBox="0 0 24 24" id="eye-off-line"><path fill="none" d="M0 0h24v24H0z"/><path d="M17.882 19.297A10.949 10.949 0 0 1 12 21c-5.392 0-9.878-3.88-10.819-9a10.982 10.982 0 0 1 3.34-6.066L1.392 2.808l1.415-1.415 19.799 19.8-1.415 1.414-3.31-3.31zM5.935 7.35A8.965 8.965 0 0 0 3.223 12a9.005 9.005 0 0 0 13.201 5.838l-2.028-2.028A4.5 4.5 0 0 1 8.19 9.604L5.935 7.35zm6.979 6.978l-3.242-3.242a2.5 2.5 0 0 0 3.241 3.241zm7.893 2.264l-1.431-1.43A8.935 8.935 0 0 0 20.777 12 9.005 9.005 0 0 0 9.552 5.338L7.974 3.76C9.221 3.27 10.58 3 12 3c5.392 0 9.878 3.88 10.819 9a10.947 10.947 0 0 1-2.012 4.592zm-9.084-9.084a4.5 4.5 0 0 1 4.769 4.769l-4.77-4.769z"/></symbol><symbol viewBox="0 0 24 24" id="instagram-line"><path fill="none" d="M0 0h24v24H0z"/><path d="M12 9a3 3 0 1 0 0 6 3 3 0 0 0 0-6zm0-2a5 5 0 1 1 0 10 5 5 0 0 1 0-10zm6.5-.25a1.25 1.25 0 0 1-2.5 0 1.25 1.25 0 0 1 2.5 0zM12 4c-2.474 0-2.878.007-4.029.058-.784.037-1.31.142-1.798.332-.434.168-.747.369-1.08.703a2.89 2.89 0 0 0-.704 1.08c-.19.49-.295 1.015-.331 1.798C4.006 9.075 4 9.461 4 12c0 2.474.007 2.878.058 4.029.037.783.142 1.31.331 1.797.17.435.37.748.702 1.08.337.336.65.537 1.08.703.494.191 1.02.297 1.8.333C9.075 19.994 9.461 20 12 20c2.474 0 2.878-.007 4.029-.058.782-.037 1.309-.142 1.797-.331.433-.169.748-.37 1.08-.702.337-.337.538-.65.704-1.08.19-.493.296-1.02.332-1.8.052-1.104.058-1.49.058-4.029 0-2.474-.007-2.878-.058-4.029-.037-.782-.142-1.31-.332-1.798a2.911 2.911 0 0 0-.703-1.08 2.884 2.884 0 0 0-1.08-.704c-.49-.19-1.016-.295-1.798-.331C14.925 4.006 14.539 4 12 4zm0-2c2.717 0 3.056.01 4.122.06 1.065.05 1.79.217 2.428.465.66.254 1.216.598 1.772 1.153a4.908 4.908 0 0 1 1.153 1.772c.247.637.415 1.363.465 2.428.047 1.066.06 1.405.06 4.122 0 2.717-.01 3.056-.06 4.122-.05 1.065-.218 1.79-.465 2.428a4.883 4.883 0 0 1-1.153 1.772 4.915 4.915 0 0 1-1.772 1.153c-.637.247-1.363.415-2.428.465-1.066.047-1.405.06-4.122.06-2.717 0-3.056-.01-4.122-.06-1.065-.05-1.79-.218-2.428-.465a4.89 4.89 0 0 1-1.772-1.153 4.904 4.904 0 0 1-1.153-1.772c-.248-.637-.415-1.363-.465-2.428C2.013 15.056 2 14.717 2 12c0-2.717.01-3.056.06-4.122.05-1.066.217-1.79.465-2.428a4.88 4.88 0 0 1 1.153-1.772A4.897 4.897 0 0 1 5.45 2.525c.638-.248 1.362-.415 2.428-.465C8.944 2.013 9.283 2 12 2z"/></symbol><symbol viewBox="0 0 24 24" id="check-line"><path fill="none" d="M0 0h24v24H0z"/><path d="M10 15.172l9.192-9.193 1.415 1.414L10 18l-6.364-6.364 1.414-1.414z"/></symbol><symbol viewBox="0 0 24 24" id="close-line"><path fill="none" d="M0 0h24v24H0z"/><path d="M12 10.586l4.95-4.95 1.414 1.414-4.95 4.95 4.95 4.95-1.414 1.414-4.95-4.95-4.95 4.95-1.414-1.414 4.95-4.95-4.95-4.95L7.05 5.636z"/></symbol><symbol viewBox="0 0 24 24" id="shopping-bag-3-line"><path fill="none" d="M0 0h24v24H0z"/><path d="M6.5 2h11a1 1 0 0 1 .8.4L21 6v15a1 1 0 0 1-1 1H4a1 1 0 0 1-1-1V6l2.7-3.6a1 1 0 0 1 .8-.4zM19 8H5v12h14V8zm-.5-2L17 4H7L5.5 6h13zM9 10v2a3 3 0 0 0 6 0v-2h2v2a5 5 0 0 1-10 0v-2h2z"/></symbol><symbol viewBox="0 0 24 24" id="message-2-line"><path fill="none" d="M0 0h24v24H0z"/><path d="M6.455 19L2 22.5V4a1 1 0 0 1 1-1h18a1 1 0 0 1 1 1v14a1 1 0 0 1-1 1H6.455zm-.692-2H20V5H4v13.385L5.763 17zM11 10h2v2h-2v-2zm-4 0h2v2H7v-2zm8 0h2v2h-2v-2z"/></symbol><symbol viewBox="0 0 24 24" id="table-line"><path fill="none" d="M0 0h24v24H0z"/><path d="M4 8h16V5H4v3zm10 11v-9h-4v9h4zm2 0h4v-9h-4v9zm-8 0v-9H4v9h4zM3 3h18a1 1 0 0 1 1 1v16a1 1 0 0 1-1 1H3a1 1 0 0 1-1-1V4a1 1 0 0 1 1-1z"/></symbol><symbol viewBox="0 0 24 24" id="bill-line"><path fill="none" d="M0 0h24v24H0z"/><path d="M20 22H4a1 1 0 0 1-1-1V3a1 1 0 0 1 1-1h16a1 1 0 0 1 1 1v18a1 1 0 0 1-1 1zm-1-2V4H5v16h14zM8 9h8v2H8V9zm0 4h8v2H8v-2z"/></symbol><symbol viewBox="0 0 24 24" id="currency-line"><path fill="none" d="M0 0h24v24H0z"/><path d="M17 16h2V4H9v2h8v10zm0 2v3c0 .552-.45 1-1.007 1H4.007A1.001 1.001 0 0 1 3 21l.003-14c0-.552.45-1 1.007-1H7V3a1 1 0 0 1 1-1h12a1 1 0 0 1 1 1v14a1 1 0 0 1-1 1h-3zM5.003 8L5 20h10V8H5.003zM7 16h4.5a.5.5 0 1 0 0-1h-3a2.5 2.5 0 1 1 0-5H9V9h2v1h2v2H8.5a.5.5 0 1 0 0 1h3a2.5 2.5 0 1 1 0 5H11v1H9v-1H7v-2z"/></symbol><symbol viewBox="0 0 24 24" id="shopping-cart-line"><path fill="none" d="M0 0h24v24H0z"/><path d="M4 16V4H2V2h3a1 1 0 0 1 1 1v12h12.438l2-8H8V5h13.72a1 1 0 0 1 .97 1.243l-2.5 10a1 1 0 0 1-.97.757H5a1 1 0 0 1-1-1zm2 7a2 2 0 1 1 0-4 2 2 0 0 1 0 4zm12 0a2 2 0 1 1 0-4 2 2 0 0 1 0 4z"/></symbol><symbol viewBox="0 0 24 24" id="refresh-line"><path fill="none" d="M0 0h24v24H0z"/><path d="M5.463 4.433A9.961 9.961 0 0 1 12 2c5.523 0 10 4.477 10 10 0 2.136-.67 4.116-1.81 5.74L17 12h3A8 8 0 0 0 6.46 6.228l-.997-1.795zm13.074 15.134A9.961 9.961 0 0 1 12 22C6.477 22 2 17.523 2 12c0-2.136.67-4.116 1.81-5.74L7 12H4a8 8 0 0 0 13.54 5.772l.997 1.795z"/></symbol><symbol viewBox="0 0 24 24" id="upload-cloud-2-line"><path fill="none" d="M0 0h24v24H0z"/><path d="M12 12.586l4.243 4.242-1.415 1.415L13 16.415V22h-2v-5.587l-1.828 1.83-1.415-1.415L12 12.586zM12 2a7.001 7.001 0 0 1 6.954 6.194 5.5 5.5 0 0 1-.953 10.784v-2.014a3.5 3.5 0 1 0-1.112-6.91 5 5 0 1 0-9.777 0 3.5 3.5 0 0 0-1.292 6.88l.18.03v2.014a5.5 5.5 0 0 1-.954-10.784A7 7 0 0 1 12 2z"/></symbol><symbol viewBox="0 0 24 24" id="upload-line"><path fill="none" d="M0 0h24v24H0z"/><path d="M3 19h18v2H3v-2zM13 5.828V17h-2V5.828L4.929 11.9l-1.414-1.414L12 2l8.485 8.485-1.414 1.414L13 5.83z"/></symbol><symbol viewBox="0 0 24 24" id="line-chart-line"><path fill="none" d="M0 0H24V24H0z"/><path d="M5 3v16h16v2H3V3h2zm15.293 3.293l1.414 1.414L16 13.414l-3-2.999-4.293 4.292-1.414-1.414L13 7.586l3 2.999 4.293-4.292z"/></symbol></svg>