<svg xmlns="http://www.w3.org/2000/svg" width="964" height="491" viewBox="0 0 964 491">
  <g id="Page-1" fill="none" fill-rule="evenodd" stroke="none" stroke-width="1">
    <g id="illustration-login" fill-rule="nonzero">
      <g id="Background" fill="#F4F7F9" transform="translate(0 106.022)">
        <path id="Fill-1" d="M301.363836,247.756162 L783.121269,247.756162 L886,247.756162 C886,247.756162 882.444201,221.301146 873.772311,205.081746 C865.100421,188.862346 824.631601,186.954182 815.959711,137.3419 C810.16341,104.181 793.207149,35.931102 738.063427,31.3989587 C685.794002,27.1027101 646.512227,36.9722737 596.288215,44.4947527 C550.646047,51.3311151 502.462551,59.011037 458.065748,45.7596873 C401.697608,28.93514 344.758199,-6.40646535 281.342783,2.04099034 C248.204048,6.45559067 187,17.978 98,42.978 C9,67.978 5.68434189e-14,90.978 5.68434189e-14,90.978 C5.68434189e-14,90.978 5.68434189e-14,246.978 5.68434189e-14,246.978 C5.68434189e-14,246.978 235.903008,247.756162 301.363836,247.756162 Z"/>
      </g>
      <g id="Fenster" transform="translate(449 .778)">
        <path id="Fill-9" fill="#FCFCFC" d="M186,94.5165575 L186,270 L4,270 L4,94.5165575 C4,44.5267778 44.742608,4 95.0013857,4 C145.257669,4 186,44.5267778 186,94.5165575"/>
        <path id="Fill-10" fill="#EBEFF3" fill-opacity=".4" d="M6,171.222771 L6,270 L188,270 L188,94.270864 C188,86.4310509 187.000107,78.8236716 185.121427,71.5682558 C183.539832,75.3509657 181.811358,65.6961253 179.920484,70.2470817 C149.938924,142.420015 30.2507408,166.948416 6,171.222771"/>
        <path id="Fill-11" fill="#EBEFF3" d="M97.0788157,259.899116 L174.890734,259.899116 L174.890734,187.667148 L97.0788157,187.667148 L97.0788157,259.899116 Z M15.1092659,259.899116 L92.802379,259.899116 L92.802379,187.667148 L15.1092659,187.667148 L15.1092659,259.899116 Z M21.3827362,63.8684523 C25.4071952,54.3609178 31.1689739,45.8209534 38.5080997,38.4860332 C45.8516461,31.1494562 54.3967834,25.3907031 63.9056247,21.3704831 C73.0782195,17.4935761 82.7893061,15.3996598 92.8026553,15.132087 L92.8026553,100.017572 L15.1092659,100.017572 L15.1092659,94.944181 C15.1092659,84.1611884 17.2201315,73.7059656 21.3827362,63.8684523 L21.3827362,63.8684523 Z M15.1095422,183.393162 L92.8026553,183.393162 L92.8026553,104.291282 L15.1095422,104.291282 L15.1095422,183.393162 Z M97.0788157,183.393162 L174.890734,183.393162 L174.890734,104.291282 L97.0788157,104.291282 L97.0788157,183.393162 Z M151.4919,38.4860332 C158.831026,45.8209534 164.592805,54.3609178 168.617816,63.8690045 C172.780145,73.7056894 174.890734,84.1609122 174.890734,94.944181 L174.890734,100.017572 L97.0788157,100.017572 L97.0788157,15.1276688 C107.135819,15.3811589 116.887244,17.4778366 126.094375,21.3704831 C135.60819,25.3929121 144.153051,31.1513891 151.4919,38.4860332 L151.4919,38.4860332 Z M162.175256,27.8087995 C153.452187,19.0907293 143.292956,12.2453928 131.980209,7.46304588 C120.265458,2.51087713 107.824061,0 95.0016577,0 C82.1781497,0 69.7362,2.51087713 58.0211726,7.46304588 C46.7078728,12.2451167 36.5486418,19.0904531 27.8250204,27.8087995 C19.1019515,36.5268697 12.2524139,46.6802792 7.46732492,57.9865438 C2.51231678,69.6945819 0,82.1288497 0,94.944181 L0,270.726014 L0,275 L4.27616042,275 L185.724116,275 L190,275 L190,270.726014 L190,94.944181 C190,82.1288497 187.487683,69.6945819 182.532951,57.9865438 C177.747862,46.6802792 170.898601,36.5268697 162.175256,27.8087995 Z"/>
      </g>
      <g id="Wall-deco-1" transform="translate(320.445 107.613)">
        <path id="Fill-19" fill="#EBEFF3" d="M7.38964445e-13,35.6810661 L121.454043,35.6810661 C121.550033,35.6810661 121.627955,35.78929 121.627955,35.9226624 L121.627955,46.6758186 C121.627955,46.8091911 121.550033,46.9176975 121.454043,46.9176975 L7.38964445e-13,46.9176975 L7.38964445e-13,35.6810661 Z"/>
        <polygon id="Fill-24" fill="#EBEFF3" points="16.472 56.409 16.472 43.048 18.095 43.048 18.095 56.409 103.428 56.409 103.428 43.048 105.052 43.048 105.052 58.037 105.023 58.037 105.023 59.069 16.446 59.069 16.446 56.409"/>
        <path id="Fill-25" fill="#FCFCFC" d="M56.5316124,61.578074 C56.0124163,61.578074 55.5917518,61.0909254 55.5917518,60.4901841 L55.5917518,59.0685804 L57.4717553,59.0685804 L57.4717553,60.4901841 C57.4717553,61.0909254 57.0508084,61.578074 56.5316124,61.578074"/>
        <path id="Fill-26" fill="#FCFCFC" d="M35.3500513,80.31411 L53.5052556,66.1071152 L71.6604599,80.31411 L35.3500513,80.31411 Z M31.3828176,81.7207376 C31.5036527,82.1779339 31.8684169,82.4901724 32.2814587,82.4901724 L74.7290525,82.4901724 C75.1420943,82.4901724 75.5068585,82.1779339 75.627976,81.7207376 C75.7488112,81.2635412 75.5977672,80.7684806 75.255589,80.500888 L54.3431968,64.1364803 L54.3431968,57.6566123 C54.3431968,56.81597 54.5634105,56.5619407 54.7548269,56.4847994 L54.7548269,56.4093535 L57.3008356,56.4093535 C56.9781379,55.2974452 56.221224,54.5133168 55.2390147,54.3208874 C55.1529055,54.2909351 55.0617144,54.2748287 54.9674178,54.2748287 L54.7584972,54.2748287 C54.6616596,54.2748287 54.56821,54.2917828 54.4801245,54.3234305 C53.2395876,54.5791553 52.4631933,55.8309352 52.4631933,57.6566123 L52.4631933,64.2961317 L31.7552045,80.500888 C31.412744,80.7684806 31.2619824,81.2635412 31.3828176,81.7207376 L31.3828176,81.7207376 Z"/>
        <path id="Fill-27" fill="#FCFCFC" d="M39.02042,61.8530417 C38.4600045,61.8530417 38.0057433,61.3658931 38.0057433,60.7651518 L38.0057433,59.3435481 L40.0350968,59.3435481 L40.0350968,60.7651518 C40.0350968,61.3658931 39.5808356,61.8530417 39.02042,61.8530417"/>
        <path id="Fill-28" fill="#FCFCFC" d="M16.1552408,86.0795876 L35.7534093,71.8725928 L55.35186,86.0795876 L16.1552408,86.0795876 Z M11.8726499,87.4862151 C12.0033665,87.9434114 12.3969278,88.2553674 12.8430016,88.2553674 L58.6640993,88.2553674 C59.1101731,88.2553674 59.5040168,87.9434114 59.634451,87.4862151 C59.7651676,87.0290188 59.6022659,86.5339582 59.2327022,86.266083 L36.6582615,69.9016753 L36.6582615,57.9314952 C36.6582615,56.9317667 36.9945109,56.7608126 37.2144422,56.731708 C37.2511445,56.735664 37.2819179,56.748097 37.3157969,56.7562915 L37.3157969,56.6842365 L39.8507949,56.6842365 C39.5024056,55.5723282 38.6853565,54.7884823 37.624943,54.5957704 C37.5323404,54.5658181 37.4338089,54.5497116 37.3318895,54.5497116 L37.1063116,54.5497116 C37.0018513,54.5497116 36.9010612,54.5666658 36.8062,54.5983135 C35.4668492,54.8540383 34.6286257,56.1055355 34.6286257,57.9314952 L34.6286257,70.0613267 L12.2743986,86.266083 C11.9051173,86.5339582 11.7422156,87.0290188 11.8726499,87.4862151 L11.8726499,87.4862151 Z"/>
        <path id="Fill-34" fill="#FCFCFC" d="M110.063265,2.13162821e-14 L66.3031416,2.13162821e-14 C65.9911723,2.13162821e-14 65.7384912,0.253181657 65.7384912,0.565137627 L65.7384912,34.9483934 C65.7384912,35.2603494 65.9911723,35.513531 66.3031416,35.513531 L110.063265,35.513531 C110.374952,35.513531 110.627916,35.2603494 110.627916,34.9483934 L110.627916,0.565137627 C110.627916,0.253181657 110.374952,2.13162821e-14 110.063265,2.13162821e-14"/>
        <path id="Fill-35" fill="#FCFCFC" d="M110.137969,-5.32907052e-15 L66.2284948,-5.32907052e-15 C65.957745,-5.32907052e-15 65.7383783,0.219555968 65.7383783,0.490256891 L63.2889249,9.05406992 C63.2889249,9.32505341 63.5080092,9.54460938 63.7787591,9.54460938 L112.587704,9.54460938 C112.858172,9.54460938 113.077539,9.32505341 113.077539,9.05406992 L110.627803,0.490256891 C110.627803,0.219555968 110.408436,-5.32907052e-15 110.137969,-5.32907052e-15"/>
        <path id="Fill-36" fill="#FCFCFC" d="M63.4659428,17.756709 L38.8251639,17.756709 C38.5134769,17.756709 38.2605135,18.0098907 38.2605135,18.3218466 L38.2605135,34.9481956 C38.2605135,35.2604342 38.5134769,35.5133332 38.8251639,35.5133332 L63.4659428,35.5133332 C63.7779121,35.5133332 64.0305932,35.2604342 64.0305932,34.9481956 L64.0305932,18.3218466 C64.0305932,18.0098907 63.7779121,17.756709 63.4659428,17.756709"/>
      </g>
      <g id="Table" transform="translate(320.444 246.778)">
        <path id="Fill-20" fill="#EBEFF3" d="M0.000112930081,12.1777551 L121.454156,12.1777551 C121.550146,12.1777551 121.628068,12.3670762 121.628068,12.6010432 L121.628068,31.4288858 C121.628068,31.6625702 121.550146,31.8521739 121.454156,31.8521739 L0.000112930081,31.8521739 L0.000112930081,12.1777551 Z"/>
        <path id="Fill-37" fill="#EBEFF3" d="M121.789925,26.9663896 L121.789925,106.44452 C121.789925,106.50725 121.681794,106.558112 121.548255,106.558112 L110.804651,106.558112 C110.671112,106.558112 110.562981,106.50725 110.562981,106.44452 L110.562981,26.9663896 L121.789925,26.9663896 Z"/>
        <path id="Fill-38" fill="#EBEFF3" d="M11.2269439,26.9663896 L11.2269439,106.44452 C11.2269439,106.50725 11.1188134,106.558112 10.9855559,106.558112 L0.241670371,106.558112 C0.108412877,106.558112 3.53495011e-13,106.50725 3.53495011e-13,106.44452 L3.53495011e-13,26.9663896 L11.2269439,26.9663896 Z"/>
        <path id="Fill-61" fill="#FCFCFC" d="M11.7780709,12.0791104 L43.2533782,12.0791104 C44.0328781,12.0791104 44.6650042,11.4467213 44.6650042,10.6662663 L44.6650042,7.4523286 C44.6650042,6.67215611 44.0328781,6.03948453 43.2533782,6.03948453 L11.7780709,6.03948453 C10.9985711,6.03948453 10.3664449,6.67215611 10.3664449,7.4523286 L10.3664449,10.6662663 C10.3664449,11.4467213 10.9985711,12.0791104 11.7780709,12.0791104"/>
        <path id="Fill-62" fill="#FCFCFC" d="M11.7780709,6.03962582 L43.2533782,6.03962582 C44.0328781,6.03962582 44.6650042,5.40723681 44.6650042,4.62678175 L44.6650042,1.41284407 C44.6650042,0.632671573 44.0328781,-2.17603713e-14 43.2533782,-2.17603713e-14 L11.7780709,-2.17603713e-14 C10.9985711,-2.17603713e-14 10.3664449,0.632671573 10.3664449,1.41284407 L10.3664449,4.62678175 C10.3664449,5.40723681 10.9985711,6.03962582 11.7780709,6.03962582"/>
      </g>
      <g id="Wall-deco-1" transform="translate(670.856 49)">
        <path id="Fill-105" fill="#97EBB4" d="M40.5067472,4.88507726 C37.8921335,6.28944427 35.7958689,8.32167917 34.1132107,10.690171 C33.9734598,10.8868389 33.6651606,10.8243912 33.6109542,10.5892939 C32.1465334,4.1916534 28.9585172,0.860167085 28.1236816,0.0768863344 C28.0121632,-0.0276641265 27.8371215,-0.025403576 27.7287087,0.0825377107 C25.1719716,2.64006804 23.6838355,5.85909196 22.9170403,9.32508103 C22.8656571,9.55933058 22.5706272,9.62997278 22.4212772,9.44262966 C21.2702374,7.9961599 19.9709768,6.534714 18.5014741,5.06535617 C18.4071775,4.97097818 18.2586745,4.95289378 18.147156,5.0260791 C16.6223176,6.02326444 7.13393227,13.5466591 24.4142108,37.2824394 C24.4661586,37.3536468 24.5491623,37.3977275 24.6372477,37.3997055 L30.0705962,37.5268302 C30.1595286,37.5285569 30.2445085,37.4881495 30.3001266,37.4186376 C45.639984,18.081606 41.7182047,6.86249382 40.8986146,5.01844974 C40.8317035,4.86897084 40.6510154,4.80765341 40.5067472,4.88507726"/>
        <path id="Fill-23" fill="#FCFCFC" d="M19.1070899,45.2730899 L36.2843198,45.2730899 C36.5062274,45.2730899 36.6979262,45.1521504 36.7433805,44.9834568 L41.2371508,28.2949427 C41.298133,28.0686051 41.0756607,27.8561134 40.77809,27.8561134 L14.6133197,27.8561134 C14.3154666,27.8561134 14.0932767,28.0686051 14.1542589,28.2949427 L18.6480291,44.9834568 C18.6934835,45.1521504 18.8851823,45.2730899 19.1070899,45.2730899"/>
        <path id="Fill-21" fill="#EBEFF3" d="M0.601504339,45.1609101 L122.055265,45.1609101 C122.151255,45.1609101 122.229459,45.2691339 122.229459,45.4025064 L122.229459,56.1556626 C122.229459,56.2890351 122.151255,56.3975415 122.055265,56.3975415 L0.601504339,56.3975415 L0.601504339,45.1609101 Z"/>
      </g>
      <g id="Box-with-shoes" transform="translate(337.08 297.475)">
        <path id="Fill-29" fill="#EBEFF3" d="M88.1331755,55.8613961 L0.2823252,55.8613961 C0.126199365,55.8613961 -2.84217094e-13,55.7348052 -2.84217094e-13,55.5788273 L-2.84217094e-13,15.2474979 C-2.84217094e-13,15.0912374 0.126199365,14.9649291 0.2823252,14.9649291 L88.1331755,14.9649291 C88.289019,14.9649291 88.4155007,15.0912374 88.4155007,15.2474979 L88.4155007,55.5788273 C88.4155007,55.7348052 88.289019,55.8613961 88.1331755,55.8613961"/>
        <path id="Fill-30" fill="#FCFCFC" d="M41.2637478,8.91674148 C40.4105611,10.4171819 39.0350727,13.4581874 40.9091474,14.9001361 L52.8944168,14.9001361 C52.8944168,14.9001361 53.7543794,12.4793691 52.146255,10.0388222 C52.146255,10.0388222 51.3049259,8.52594881 51.0432105,3.58382026 C50.9726292,2.52475235 49.9774328,2.11813583 49.9774328,2.11813583 C49.9774328,2.11813583 50.1270652,3.46389584e-14 46.9672815,3.46389584e-14 C43.8072156,3.46389584e-14 43.4145012,1.99719637 43.4145012,1.99719637 C43.4145012,1.99719637 43.0031534,2.09807344 42.7600714,3.9132955 C42.5567973,5.43266801 42.575713,4.18795238 42.1273806,6.56435611 C41.9701255,7.3970864 41.6756603,8.19251761 41.2637478,8.91674148"/>
        <path id="Fill-31" fill="#EBEFF3" d="M40.1673944,13.9269691 C40.4274159,14.1346572 40.9339073,14.4497214 41.6007594,14.4361581 C42.5917209,14.4158132 44.5552927,13.8713031 44.7421919,13.4677948 C44.9290912,13.0645691 45.1541044,11.3095342 46.7898966,11.3900663 C48.4254065,11.470881 48.6312216,11.6726351 49.1922017,13.0645691 C49.7528996,14.4562205 52.6800473,14.4545251 53.0306952,14.3446058 C52.9668897,14.694426 52.8943321,14.9001361 52.8943321,14.9001361 L40.9090627,14.9001361 C40.5530506,14.6263269 40.3147681,14.2945911 40.1673944,13.9269691"/>
        <path id="Fill-32" fill="#FCFCFC" d="M67.6640338,8.91674148 C68.5172205,10.4171819 69.8927089,13.4581874 68.0186342,14.9001361 L56.0333648,14.9001361 C56.0333648,14.9001361 55.1734023,12.4793691 56.7812443,10.0388222 C56.7812443,10.0388222 57.6228557,8.52594881 57.8845712,3.58382026 C57.9551525,2.52475235 58.9503488,2.11813583 58.9503488,2.11813583 C58.9503488,2.11813583 58.8007165,3.46389584e-14 61.9605001,3.46389584e-14 C65.1205661,3.46389584e-14 65.5132804,1.99719637 65.5132804,1.99719637 C65.5132804,1.99719637 65.9246282,2.09807344 66.1677102,3.9132955 C66.3709844,5.43266801 66.3517863,4.18795238 66.800401,6.56435611 C66.9576561,7.3970864 67.2521213,8.19251761 67.6640338,8.91674148"/>
        <path id="Fill-33" fill="#EBEFF3" d="M68.7603872,13.9269691 C68.5003657,14.1346572 67.9938743,14.4497214 67.3267399,14.4361581 C66.3360607,14.4158132 64.372489,13.8713031 64.1855897,13.4677948 C63.9986904,13.0645691 63.7736772,11.3095342 62.137885,11.3900663 C60.5023751,11.470881 60.2965601,11.6726351 59.7355799,13.0645691 C59.1745997,14.4562205 56.2477344,14.4545251 55.8970865,14.3446058 C55.960892,14.694426 56.0334495,14.9001361 56.0334495,14.9001361 L68.0187189,14.9001361 C68.374731,14.6263269 68.6130135,14.2945911 68.7603872,13.9269691"/>
      </g>
      <g id="Cash-desk" transform="translate(606 137.778)">
        <g id="Group" transform="matrix(-1 0 0 1 281 0)">
          <path id="Fill-218" fill="#D2B6A9" d="M151.997466,142.100041 C148.985173,142.011422 145.384594,139.588515 145.10519,139.369716 C140.046802,135.404959 134.665617,124.476886 131.707338,119.546116 C130.245135,117.109111 128.30377,114.047566 126.600796,111.402198 C124.428547,108.027559 122.630363,104.428445 121.240849,100.663446 C116.557442,87.9739915 103.772045,64.0398911 100.080833,59.1580077 C95.8427149,53.5527128 89.3182791,55.8300584 86.720882,54.18952 L86.7518252,54.336729 C86.7309523,54.3242785 86.709347,54.3121942 86.6890233,54.2993775 C84.6762511,53.0281433 84.2348072,43.6822011 84.1377664,39.6009956 C86.7155722,37.8932611 89.2021963,35.5824089 91.3059671,32.4496397 C99.1009048,20.8420982 90.034916,1.35466249 77.8343272,2.45616684 C65.6335552,3.5574881 66.0570558,2.71030382 59.3636225,8.3870061 C59.3636225,8.3870061 53.6869202,26.0951168 58.3468915,35.076149 C63.0068628,44.0573644 63.5155029,44.5656383 66.9891965,44.4810481 C67.1834612,44.4762876 67.4094014,44.4704285 67.660975,44.4623723 C67.6064125,44.9788856 67.5611878,45.4316815 67.5317094,45.7720566 C67.4066549,47.2194289 66.3225447,51.4813499 65.9823527,52.9041874 C65.9201001,53.1643666 65.6976387,53.3575326 65.430685,53.375476 C46.6946745,54.636823 30.9852377,102.168677 30.9852377,102.168677 L16.8885087,135.069345 C16.7660176,135.310482 16.5041906,135.787447 16.1537452,136.354128 C14.997129,138.224269 13.1614105,140.120958 11.0356682,140.683428 C9.50626896,141.08807 7.79798512,141.634245 6.38595028,142.410388 C2.91921433,144.315866 -0.212273198,146.179232 0.0112867782,147.540183 C0.234846754,148.901134 0.346901386,148.76015 8.06347403,148.76015 L21.2601041,148.76015 C21.2601041,148.76015 22.450593,147.697462 23.8038541,144.41547 C23.8122765,144.41785 23.8038541,142.410388 23.8038541,142.410388 L25.8402456,138.217311 L42.4263635,106.909393 C43.6232608,104.944043 45.0017891,102.52553 46.3539516,100.663446 C49.6981965,96.057671 51.8838111,90.646641 53.8951185,86.5473087 C54.2063814,94.097813 53.4155722,115.884933 50.4937294,127.937763 C47.2273002,141.411783 46.5467331,155.566188 46.5467331,155.566188 C46.5467331,155.566188 107.868447,155.496611 107.92832,155.158067 C107.936925,155.10973 107.944432,155.060111 107.952671,155.01159 L108.055754,155.501921 C109.969838,144.701466 104.774678,126.65536 101.220239,109.566113 C100.715444,107.138812 102.486724,98.995793 102.072378,95.983134 C105.794716,102.229997 110.78664,108.495169 112.331968,110.73791 C112.72361,111.306056 113.160111,111.839414 113.639456,112.335787 C114.487627,113.214059 115.994773,115.385729 117.731586,117.56384 C122.263681,123.247474 132.575592,139.369716 136.913484,144.41547 C138.304547,146.033529 139.315152,147.266089 139.32632,147.261877 L140.619892,148.360635 C140.861213,148.565703 141.166983,148.679588 141.483921,148.682701 L161.308253,148.678123 C161.308253,148.678123 161.731388,146.896601 160.179651,145.908983 C158.627731,144.921547 156.793843,142.241024 151.997466,142.100041 Z"/>
          <path id="Fill-220" fill="#000" fill-opacity=".1" d="M67.6604807,44.4669314 C67.6584666,44.4867057 67.6562695,44.5073956 67.6542554,44.5269868 C69.2100204,44.6793225 75.2779985,45.0391058 84.2511576,42.6531844 C84.1881727,41.4119779 84.1570464,40.460429 84.1378213,39.6009773 C83.980542,39.7337218 78.5186111,44.1005567 67.6604807,44.4669314"/>
          <path id="Fill-221" fill="#FFF" d="M37.7908355,81.8900841 C37.5859513,82.2846556 47.3235354,96.160388 51.6281177,98.454761 C51.9003812,98.59959 52.2361789,98.530197 52.4209226,98.28375 L58.659729,89.9653414 L100.033705,101.384477 C100.033705,101.384477 104.86011,94.760987 107.706884,90.1127335 C110.300069,85.8793755 111.940608,80.1111253 112.557275,77.7642033 C112.768201,77.5719527 112.819102,77.261056 112.680864,77.0111302 C111.091226,74.1354275 101.918493,57.8578444 97.0402713,56.1215469 C91.6869162,54.2160689 86.6889501,54.2993775 86.6889501,54.2993775 C86.6889501,54.2993775 78.4397517,60.5674792 71.4533652,59.7508719 C64.4666124,58.9344477 65.4628367,53.3738282 65.4628367,53.3738282 C65.4628367,53.3738282 53.6694529,51.3127187 37.7908355,81.8900841"/>
          <path id="Fill-222" fill="#000" fill-opacity=".1" d="M38.6340649,83.385867 C38.4326595,83.8113816 38.231071,84.2372624 38.0362571,84.6574673 C39.0639738,86.2254998 42.043858,90.6842488 44.4068925,93.3389548 C46.6413937,95.849198 49.277424,98.506468 50.3743509,99.598451 C50.6175021,99.103543 50.8533295,98.611199 51.0845795,98.122699 C47.4481138,95.668483 40.9478466,86.9258412 38.6340649,83.385867"/>
          <path id="Fill-224" fill="#000" fill-opacity=".1" d="M111.902249,80.1295813 C111.03584,82.9375386 109.54013,87.1201791 107.706975,90.11288 C104.860018,94.761133 100.033796,101.384441 100.033796,101.384441 L99.8450244,101.332442 C100.072063,101.712915 100.303496,102.093571 100.538774,102.473495 C104.00606,99.317655 106.034395,95.737949 107.812804,93.0233709 C111.083445,88.0312638 112.620534,84.2203078 112.960909,82.2359155 C112.609915,81.5319121 112.256723,80.8290073 111.902249,80.1295813"/>
          <path id="Fill-225" fill="#303F56" d="M53.6550798,92.1740261 C53.6550798,92.1740261 54.4553916,69.5054839 54.0251164,58.91211 C54.0155955,58.6768319 54.1075096,58.640579 54.2777887,58.4779899 C57.8748888,55.0464083 60.7423522,53.488263 64.6747008,53.1809037 C64.7874878,53.1740706 64.8836131,53.2652524 64.8823314,53.3784056 L65.6517,71.367019 C65.6452916,71.9402919 66.108524,72.4084679 66.6816139,72.4084679 L67.4009973,72.5664796 C73.1068118,73.8203197 79.0142148,73.8466854 84.7310151,72.643746 L85.8499136,72.4084679 C86.4217218,72.4084679 86.8838556,71.9428553 86.8801936,71.3712302 L87.072078,54.0813103 C87.0733597,53.9688895 87.1693019,53.8815528 87.2809904,53.89144 C88.3138338,53.9817062 93.1807033,54.6227246 96.3473453,55.5850762 C96.6818613,55.6866944 96.7199452,55.6063153 96.7331281,55.955479 C97.078813,65.0646783 100.186498,101.309591 100.137795,101.228114 C100.550126,104.22704 101.006035,107.011561 101.508633,109.427876 C105.047325,126.440589 110.219233,144.405949 108.313572,155.158067 C106.408277,165.910002 86.2651748,155.974674 68.5722611,155.158067 C50.8789813,154.34146 46.3539516,155.566371 46.3539516,155.566371 C46.3539516,155.566371 46.7748888,144.570003 49.3550749,132.614579 C50.3741861,127.892539 51.4394375,123.139005 52.1254975,118.357275 C53.2709448,110.375397 53.8758934,101.03806 53.6550798,92.1740261"/>
          <path id="Fill-89" fill="#1E2125" d="M97.7386793,15.8828277 C99.5535362,15.4011748 102.072085,14.1858819 104.078523,13.0954095 C104.655387,12.7814432 105.005957,12.1800141 105.000077,11.5423973 C104.939182,5.17438474 103.362043,6.34482526 99.6472703,4.19981319 C92.4278549,0.030584552 86.5966764,-1.32314054 76.1460791,2.38839039 C68.9833696,4.93223147 66.6597486,9.8965697 62.8705161,15.8828277 C60.3849915,19.8097009 59.0351768,24.3935587 59.8722527,28.9781812 C60.675941,33.3813555 60.7485797,32.1258253 59.512177,36.6928635 C58.322411,41.0873733 56.7327882,44.4946219 57.8480945,49.1495809 C58.8205758,53.2079529 61.9908121,56.072896 63.1654741,59.9444682 C65.4384837,67.4381215 75.663317,58.4034336 78.8833697,52.5945463 C80.3540159,49.9408679 82.7253336,48.6689473 84.5685435,46.4637924 C86.6242684,44.0043043 87.182319,40.9681068 86.3672365,38.0761505 C85.0155669,33.2797536 84.2468206,28.0196759 85.786627,24.6282276 C86.8038902,22.3873946 86.3460025,21.3575747 89.511734,20.2214855 C92.8391042,19.0272919 94.314591,16.7918521 97.7386793,15.8828277 Z" transform="matrix(-1 0 0 1 162.47 0)"/>
        </g>
        <path id="Fill-268" fill="#F4F7F9" d="M156.664216,295 C267.858914,295 358,296.089786 358,297.434076 C358,298.778548 267.858914,299.868334 156.664216,299.868334 C45.4695177,299.868334 0,298.778548 0,297.434076 C0,296.089786 45.4695177,295 156.664216,295"/>
        <path id="Fill-269" fill="#E8EDF7" d="M352.988064,209.365811 L289.55196,209.365811 C289.14091,209.365811 288.808041,209.032027 288.808957,208.620977 L288.884392,148.278276 C288.88659,147.319037 288.109714,146.540331 287.150658,146.540331 L231.490266,146.540331 L231.490266,138.183106 C231.490266,137.643705 231.927316,137.206473 232.466899,137.206473 L244.661263,137.206473 C245.200663,137.206473 245.637713,136.76924 245.637713,136.230023 L245.637713,122.976633 C245.637713,122.437233 245.200663,122 244.661263,122 L210.878256,122 C210.339039,122 209.901623,122.437233 209.901623,122.976633 L209.901623,136.230023 C209.901623,136.76924 210.339039,137.206473 210.878256,137.206473 L223.79951,137.206473 C224.338727,137.206473 224.776143,137.643705 224.776143,138.183106 L224.776143,146.540331 L3.171447,146.540331 C2.52438643,146.540331 2,147.065083 2,147.712144 L2.0455909,287.872531 C2.0455909,288.556577 2.600005,289.110991 3.28405092,289.110991 L10.3856048,289.110991 C11.0324822,289.110991 11.5570517,289.635377 11.5570517,290.282438 L11.5570517,295.792523 C11.5570517,296.439583 12.0814381,296.964153 12.7284987,296.964153 L345.043537,296.964153 C345.690598,296.964153 346.215167,296.439583 346.215167,295.792523 L346.215167,290.527786 C346.215167,289.880909 346.739554,289.356339 347.386614,289.356339 L352.988064,289.356339 C353.635125,289.356339 354.159511,288.831953 354.159511,288.184892 L354.159511,210.537258 C354.159511,209.89038 353.635125,209.365811 352.988064,209.365811"/>
        <path id="Fill-274" fill="#F5F7F9" d="M12.3661916,203 L278.796769,203 C278.998906,203 279.16296,203.164054 279.16296,203.366192 L279.16296,209.327974 C279.16296,209.530295 278.998906,209.694166 278.796769,209.694166 L12.3661916,209.694166 C12.1638707,209.694166 12,209.530295 12,209.327974 L12,203.366192 C12,203.164054 12.1638707,203 12.3661916,203"/>
      </g>
      <g id="Products" transform="translate(270 378.778)">
        <path id="Fill-39" fill="#F4F7F9" d="M312.148623,106.925562 C312.148623,109.659415 242.271724,111.875602 156.074453,111.875602 C69.8768987,111.875602 0,109.659415 0,106.925562 C0,104.191709 69.8768987,101.975521 156.074453,101.975521 C242.271724,101.975521 312.148623,104.191709 312.148623,106.925562"/>
        <path id="Fill-54" fill="#DCE4EF" d="M6.8326651,107.210759 L303.766783,107.210759 C303.922909,107.210759 304.049108,107.084168 304.049108,106.92819 L304.049108,60.1921556 C304.049108,60.0358951 303.922909,59.9095868 303.766783,59.9095868 L6.8326651,59.9095868 C6.67682159,59.9095868 6.5503399,60.0358951 6.5503399,60.1921556 L6.5503399,106.92819 C6.5503399,107.084168 6.67682159,107.210759 6.8326651,107.210759"/>
        <path id="Fill-55" fill="#E8EDF7" d="M53.940714,60.0485259 L139.671867,60.0485259 C141.386992,60.0485259 142.777444,58.6568745 142.777444,56.940269 L142.777444,49.7777147 C142.777444,48.0611091 141.386992,46.6694577 139.671867,46.6694577 L53.940714,46.6694577 C52.2255884,46.6694577 50.8351368,48.0611091 50.8351368,49.7777147 L50.8351368,56.940269 C50.8351368,58.6568745 52.2255884,60.0485259 53.940714,60.0485259"/>
        <path id="Fill-56" fill="#E8EDF7" d="M53.940714,32.8431396 L139.671867,32.8431396 C141.386992,32.8431396 142.777444,31.4514882 142.777444,29.7348827 L142.777444,22.5723284 C142.777444,20.8557229 141.386992,19.4640715 139.671867,19.4640715 L53.940714,19.4640715 C52.2255884,19.4640715 50.8351368,20.8557229 50.8351368,22.5723284 L50.8351368,29.7348827 C50.8351368,31.4514882 52.2255884,32.8431396 53.940714,32.8431396"/>
        <path id="Fill-57" fill="#DCE4EF" d="M53.940714,46.5063308 L139.671867,46.5063308 C141.386992,46.5063308 142.777444,45.1146794 142.777444,43.3980738 L142.777444,36.2355195 C142.777444,34.518914 141.386992,33.1272626 139.671867,33.1272626 L53.940714,33.1272626 C52.2255884,33.1272626 50.8351368,34.518914 50.8351368,36.2355195 L50.8351368,43.3980738 C50.8351368,45.1146794 52.2255884,46.5063308 53.940714,46.5063308"/>
        <path id="Fill-58" fill="#E8EDF7" d="M168.825021,59.8854555 L254.555891,59.8854555 C256.271017,59.8854555 257.661468,58.493804 257.661468,56.7771985 L257.661468,49.6146442 C257.661468,47.8980387 256.271017,46.5063873 254.555891,46.5063873 L168.825021,46.5063873 C167.109895,46.5063873 165.719444,47.8980387 165.719444,49.6146442 L165.719444,56.7771985 C165.719444,58.493804 167.109895,59.8854555 168.825021,59.8854555"/>
        <path id="Fill-211" fill="#DCE4EF" d="M205.132376,47.2732862 L199.561465,47.2732862 C193.663318,47.2732862 188.636482,43.6212269 187.695223,38.6519761 L185.377204,29.6070885 C185.201421,28.9216298 185.813315,28.2732862 186.635357,28.2732862 L218.058484,28.2732862 C218.88083,28.2732862 219.49242,28.9216298 219.316637,29.6070885 L216.998618,38.6519761 C216.057359,43.6212269 211.030523,47.2732862 205.132376,47.2732862"/>
        <path id="Fill-212" fill="#97EBB4" d="M208.5363,0.449233375 C208.430049,0.229166933 208.191753,0.211502737 208.072044,0.41905704 C207.056905,2.17811656 203.120261,9.44214918 201.97532,18.1285176 C201.9271,18.4935776 201.54807,18.5524583 201.442379,18.2087425 C199.437051,11.6924941 196.495081,4.5421748 192.715432,1.84396885 C192.533486,1.71406341 192.310049,1.86899313 192.297153,2.13984414 C192.19819,4.21575517 192.010357,11.7907512 193.994939,19.334099 C194.078483,19.6520545 193.815797,19.9372576 193.59292,19.7712878 C189.890086,17.0101532 185.883075,14.8933937 182.607491,15.2720699 C182.398351,15.2963581 182.278923,15.5959135 182.388259,15.8314361 C183.193418,17.5651033 186.156133,23.5344976 190.783274,28.1963733 C190.832896,28.2460539 190.894292,28.2732862 190.95681,28.2732862 L212.571066,28.2732862 C212.618165,28.2732862 212.664422,28.258198 212.705914,28.2291257 C216.793665,25.3454457 220.567427,21.4262022 221.341187,16.5070916 C221.378474,16.271201 221.228768,16.0562866 221.045701,16.0743188 C219.57836,16.2185764 213.865713,16.991753 208.613957,20.5908329 C208.392482,20.7424506 208.144935,20.4609275 208.220909,20.148492 C209.855057,13.4464016 210.929349,5.40992843 208.5363,0.449233375 Z"/>
      </g>
    </g>
  </g>
</svg>
