<svg xmlns="http://www.w3.org/2000/svg" width="250" height="250" viewBox="0 0 250 250">
  <g fill="none">
      <path id="Fill-48" fill="#F4F7F9" fill-rule="nonzero" d="M172,221.537287 C172,223.47024 151.181195,225.037287 125.499832,225.037287 C99.8184688,225.037287 79,223.47024 79,221.537287 C79,219.604333 99.8184688,218.037287 125.499832,218.037287 C151.181195,218.037287 172,219.604333 172,221.537287"/>
      <path id="Fill-49" fill="#DCE4EF" fill-rule="nonzero" d="M144.143472,47.8730158 C144.63049,50.0215691 145.388961,52.7547169 146.418886,54.7097491 C146.762859,55.3625464 147.733237,55.175409 147.809416,54.4396261 C148.26084,50.0817084 149.453104,39.819721 150.975701,36.4364636 C151.099452,36.161637 151.311691,35.9388863 151.571168,35.788034 C153.734142,34.5308196 164.598577,28.3515872 171.367934,27.0634632 C172.256476,26.8944684 173.083476,27.5644003 173.116077,28.4769055 C173.31634,34.0896858 174.01094,52.4909774 174.66928,57.0733256 C174.749452,57.6313783 174.514924,58.1860713 174.05718,58.5096142 C171.409849,60.3809889 162.783569,66.7188009 158.586362,72.695105 C158.144586,73.3240481 158.826544,74.1337453 159.514159,73.7981073 L173.871222,66.7913713 C175.136006,66.1741872 176.461002,67.516403 175.84358,68.7907521 C167.270525,86.4821307 132.368205,159.483888 129.595128,181.037287 C129.595128,181.037287 107.862929,172.841203 107.998715,172.424595 C108.134715,172.018067 115.980901,85.9344932 141.47851,47.3724147 C142.196064,46.2872189 143.855053,46.6010186 144.143472,47.8730158"/>
      <path id="Fill-50" fill="#E8EDF7" fill-rule="nonzero" d="M129,139.236577 C129,139.236577 156.551733,108.474255 176.494716,102.055915 C176.822049,101.950768 177.103669,102.31185 176.926155,102.609709 L169.824921,114.52306 C169.621047,114.865209 170.01378,115.251987 170.343449,115.033241 C173.150976,113.170016 179.654935,108.546944 182.631634,103.870117 C182.733071,103.710537 182.93194,103.651709 183.100779,103.733189 L199.366682,111.59924 C200.119115,111.963027 200.223555,113.005027 199.558878,113.51487 L181.866188,127.088252 C181.764084,127.16669 181.630948,127.186975 181.511493,127.140319 C180.387348,126.702489 174.579765,124.470743 172.220695,124.168827 C171.939409,124.132651 171.724189,124.412592 171.828295,124.680022 C172.21569,125.677732 173.150642,127.796893 174.426943,128.786489 C174.658178,128.966016 174.588774,129.337579 174.312826,129.432583 C170.267038,130.824508 151.187269,137.575531 140.864753,144.548342 C129.275948,152.376864 129,139.236577 129,139.236577"/>
      <path id="Fill-51" fill="#E8EDF7" fill-rule="nonzero" d="M108.124222,147.943077 C105.964697,146.437976 81.6392559,84.6638758 79.0023454,50.0637038 C78.9525485,49.4068834 79.7068052,49.0131949 80.2087577,49.4317833 L91.9405693,59.2181392 C92.5470952,59.724214 93.410573,59.0488868 93.0792578,58.326788 C90.6787165,53.0998161 85.5227481,42.4682076 82.0442705,39.5646708 L94.4546475,15.8340028 C94.9107869,14.9614949 96.0591028,14.7666696 96.7678783,15.4440157 C102.118718,20.5532176 120.928658,38.7493655 121.987671,43.0429256 C121.987671,43.0429256 115.357383,61.1872547 114.490586,70.0412081 C114.414231,70.8218554 115.426103,71.1758386 115.845725,70.5173357 C118.171903,66.8678096 122.754543,59.3137012 124.709901,53.5426315 C124.959549,52.8057274 126.014247,52.899607 126.134091,53.6691502 C128.128954,66.4731116 134.306422,111.7022 128.713569,149.612384 C122.124779,194.271802 108.124222,147.943077 108.124222,147.943077"/>
      <path id="Fill-52" fill="#DCE4EF" fill-rule="nonzero" d="M124.063267,154.312989 C120.493173,151.923148 91.5660594,132.180121 77.001443,128.680338 C76.3370991,128.520814 76.2100626,127.629966 76.8087095,127.299811 C78.8128024,126.195927 81.7822384,124.456974 83.2004215,123.621993 C83.492706,123.44968 83.421646,123.008126 83.0904797,122.935095 C79.6433998,122.174492 67.3248824,119.625463 60.0365409,120.3164 C59.7767697,120.340968 59.5237023,120.231589 59.366834,120.021919 L47.3731144,103.965123 C46.6330179,102.974656 47.0396017,101.548021 48.1896339,101.100073 L68.3187167,93.260816 C68.5918955,93.1541297 68.9006042,93.2174011 69.1094267,93.4240427 C70.8825746,95.1754484 78.9445315,103.227069 79.437594,105.331515 C79.437594,105.331515 77.0802123,97.9210226 74.8331078,93.1026375 C74.5270805,92.4460287 75.2413675,91.7820157 75.8715221,92.1357296 C83.3790771,96.3530366 109.175529,112.431372 125.726138,142.484943 C145.2673,177.968746 124.063267,154.312989 124.063267,154.312989"/>
      <path id="Fill-53" fill="#DCE4EF" fill-rule="nonzero" d="M165.682992,134.037287 L153.175643,134.037287 L96.8240334,134.037287 L84.3170179,134.037287 C83.4595369,134.037287 82.7504725,134.703906 82.6997774,135.560797 C82.0123918,147.157704 78.405702,221.037287 98.1024172,221.037287 L100.874639,221.037287 L149.125037,221.037287 L151.897259,221.037287 C171.594308,221.037287 167.987618,147.157704 167.300232,135.560797 C167.249537,134.703906 166.540473,134.037287 165.682992,134.037287 Z"/>
      <rect id="Rectangle" width="250" height="250" x="0" y="0"/>
  </g>
</svg>
