<svg viewBox="0 0 177.65 227.57" xmlns="http://www.w3.org/2000/svg" xmlns:xlink="http://www.w3.org/1999/xlink"><linearGradient id="a" gradientTransform="translate(102.6 -105.72)" gradientUnits="userSpaceOnUse" x1="-49.41" x2="-35.42" y1="199.04" y2="199.04"><stop offset="0" stop-color="#9e23cc"/><stop offset="1" stop-color="#4619bf"/></linearGradient><clipPath id="b"><path d="m102.52 141-.74.43a1 1 0 0 0 -.31 1.48c3.75 5 15.52 28.93 19 36.07a2.4 2.4 0 0 1 -1 3.14l-17.6 10.18a2.41 2.41 0 0 1 -2.84-.31c-2.49-2.3-8.3-7.8-15.37-15.5-9.49-10.32-20.91-30.07-24.92-40s-4-10-5.95-19.4c-4.48 5.71-3.15 19.09-2.79 22.06a2.17 2.17 0 0 0 .42 1.05c1.48 2 7.26 9.65 8.58 11.94 1.52 2.63 0 4.7-1.11 4.16a86.32 86.32 0 0 1 -7.89-5.3 1.52 1.52 0 0 0 -1.43-.22c-1.78.7 1.08 3.23 1.08 3.23a47.17 47.17 0 0 0 5.68 3.74 3.72 3.72 0 0 1 2.05 2.61 2.31 2.31 0 0 1 -.68 2.32c-3.69 3.32-9.35 1.69-12.48.38a8.71 8.71 0 0 1 -4-3.3 19 19 0 0 1 -3.09-9.08 18.73 18.73 0 0 0 -2.7-10.74c-14.13-27.08 3.31-51.12 4.86-55.66 9-3.18 15.13-10.62 22.07-14.56l-.21.12c6.92-4.07 15.57-6.19 22.85-12.44 4.71.93 35.09-1.66 51.52 24.1a18.73 18.73 0 0 0 8 7.69 19 19 0 0 1 6.33 7.21 8.71 8.71 0 0 1 .89 5.07c-.43 3.36-1.84 9.08-6.55 10.62a2.31 2.31 0 0 1 -2.35-.57 3.72 3.72 0 0 1 -1.24-3.08 47.17 47.17 0 0 0 -.41-6.79s-.76-3.72-2.25-2.55a1.52 1.52 0 0 0 -.53 1.35c.36 3.46 1.8 8.8.56 9.51s-2.63 1.52-4.16-1.11c-1.32-2.29-5.11-11.13-6.07-13.39a2.17 2.17 0 0 0 -.7-.89c-2.39-1.79-13.33-9.62-20.51-8.58 7.2 6.37 7.2 6.38 13.85 14.83s18.07 28.2 22.29 41.57c3.15 10 5 17.75 5.78 21.05a2.41 2.41 0 0 1 -1.14 2.62l-17.6 10.18a2.4 2.4 0 0 1 -3.2-.73c-4.45-6.58-19.32-28.71-21.79-34.46a1 1 0 0 0 -1.43-.47l-.74.43"/></clipPath><clipPath id="c"><circle cx="60.18" cy="93.32" r="6.99" transform="matrix(.86558874 -.50075556 .50075556 .86558874 -38.64 42.68)"/></clipPath><linearGradient id="d" gradientTransform="translate(113.84 -113.31)" x1="-48.06" x2="-16.1" xlink:href="#a" y1="218.81" y2="218.81"/><clipPath id="e"><path d="m129.12 178.73 10.53 16.4a11.24 11.24 0 0 0 8.07 4.42 15.15 15.15 0 0 0 4.35-.21 18 18 0 0 0 5.6-2.12c9.16-5.25 17.65-10.09 8.59-17.5a15 15 0 0 0 -5.65-2.87c-.87-.23-1.73-.43-2.51-.61a10 10 0 0 1 -6.6-4.91l-2.11-3.75z"/></clipPath><clipPath id="f"><path d="m122.22 182.72 9 17.31a11.24 11.24 0 0 1 -.19 9.2 15.15 15.15 0 0 1 -2.36 3.67 18 18 0 0 1 -4.63 3.8c-9.12 5.33-17.55 10.27-19.45-1.27a15 15 0 0 1 .33-6.33c.24-.87.48-1.71.73-2.48a10 10 0 0 0 -1-8.17l-2.2-3.69z"/></clipPath><clipPath id="g"><path d="m11.68 50.55a0 0 0 0 1 0 0v18.26a0 0 0 0 1 0 0 7.3 7.3 0 0 1 -7.3-7.3v-3.65a7.3 7.3 0 0 1 7.3-7.3z" transform="matrix(.87 -.5 .5 .87 -28.81 12.04)"/></clipPath><clipPath id="h"><path d="m82.77 9.43a0 0 0 0 1 0 0v18.26a0 0 0 0 1 0 0 7.3 7.3 0 0 1 -7.3-7.3v-3.66a7.3 7.3 0 0 1 7.3-7.3z" transform="matrix(-.86558874 .50075556 -.50075556 -.86558874 156.89 -4.99)"/></clipPath><clipPath id="i"><circle cx="43.68" cy="39.58" r="38.78" transform="matrix(.87 -.5 .5 .87 -13.95 27.19)"/></clipPath><linearGradient id="j" gradientTransform="matrix(.86558874 -.50075556 .50075556 .86558874 -2.76 -100.21)" x1="-51.67" x2="-1.64" xlink:href="#a" y1="143.38" y2="143.38"/><rect fill="#b5b5b5" height="6.32" rx="3.16" transform="matrix(-.86558874 .50075556 -.50075556 -.86558874 94.9 137.26)" width="6.32" x="25.87" y="78.21"/><path d="m91.91 123.18-30.75 17.82a10.6 10.6 0 0 1 -13.91-3l-24.38-33.9a15.5 15.5 0 0 1 4.82-22.46l30.11-17.44z" fill="#969696"/><path d="m91.69 122.79-29.6 17.12a10.2 10.2 0 0 1 -13.4-2.91l-23.28-32.34a15.21 15.21 0 0 1 4.73-22l28.7-16.66z" fill="#b5b5b5"/><rect fill="#b5b5b5" height="6.32" rx="3.16" transform="matrix(.86558874 -.50075556 .50075556 .86558874 -12.12 50.13)" width="6.32" x="84.16" y="44.49"/><path d="m91.82 123.23 30.75-17.79a10.6 10.6 0 0 0 4.35-13.55l-17.23-38a15.5 15.5 0 0 0 -21.87-7l-30.11 17.37z" fill="#969696"/><path d="m91.21 123.07 29.6-17.12a10.2 10.2 0 0 0 4.19-13l-16.46-36.37a15.21 15.21 0 0 0 -21.47-6.89l-28.7 16.6z" fill="#b5b5b5"/><path d="m102.52 141-.74.43a1 1 0 0 0 -.31 1.48c3.75 5 15.52 28.93 19 36.07a2.4 2.4 0 0 1 -1 3.14l-17.6 10.18a2.41 2.41 0 0 1 -2.84-.31c-2.49-2.3-8.3-7.8-15.37-15.5-9.49-10.32-20.91-30.07-24.92-40s-4-10-5.95-19.4c-4.48 5.71-3.15 19.09-2.79 22.06a2.17 2.17 0 0 0 .42 1.05c1.48 2 7.26 9.65 8.58 11.94 1.52 2.63 0 4.7-1.11 4.16a86.32 86.32 0 0 1 -7.89-5.3 1.52 1.52 0 0 0 -1.43-.22c-1.78.7 1.08 3.23 1.08 3.23a47.17 47.17 0 0 0 5.68 3.74 3.72 3.72 0 0 1 2.05 2.61 2.31 2.31 0 0 1 -.68 2.32c-3.69 3.32-9.35 1.69-12.48.38a8.71 8.71 0 0 1 -4-3.3 19 19 0 0 1 -3.09-9.08 18.73 18.73 0 0 0 -2.7-10.74c-14.13-27.08 3.31-51.12 4.86-55.66 9-3.18 15.13-10.62 22.07-14.56l-.21.12c6.92-4.07 15.57-6.19 22.85-12.44 4.71.93 35.09-1.66 51.52 24.1a18.73 18.73 0 0 0 8 7.69 19 19 0 0 1 6.33 7.21 8.71 8.71 0 0 1 .89 5.07c-.43 3.36-1.84 9.08-6.55 10.62a2.31 2.31 0 0 1 -2.35-.57 3.72 3.72 0 0 1 -1.24-3.08 47.17 47.17 0 0 0 -.41-6.79s-.76-3.72-2.25-2.55a1.52 1.52 0 0 0 -.53 1.35c.36 3.46 1.8 8.8.56 9.51s-2.63 1.52-4.16-1.11c-1.32-2.29-5.11-11.13-6.07-13.39a2.17 2.17 0 0 0 -.7-.89c-2.39-1.79-13.33-9.62-20.51-8.58 7.2 6.37 7.2 6.38 13.85 14.83s18.07 28.2 22.29 41.57c3.15 10 5 17.75 5.78 21.05a2.41 2.41 0 0 1 -1.14 2.62l-17.6 10.18a2.4 2.4 0 0 1 -3.2-.73c-4.45-6.58-19.32-28.71-21.79-34.46a1 1 0 0 0 -1.43-.47l-.74.43" fill="#f2f2f2"/><g clip-path="url(#b)"><path d="m102.92 60.31h18.38v7.44h-18.38z" fill="#ffcb39" transform="matrix(.3955455 -.91844638 .91844638 .3955455 8.96 141.66)"/><path d="m84 57.4s33.5 5.64 47.74 20.34c11.5 16.28 9.9 9.91 11.65 12s9 4.71 4.3 19.15 12.71-8.66 12.71-8.66l-23.67-36.34-49.81-11.32-2.39 4z" fill="#fff"/><g fill="#ffcb39"><path d="m19.21 108.48h18.95v7.67h-18.95z" transform="matrix(.99735269 .07271599 -.07271599 .99735269 8.25 -1.79)"/><path d="m106.09 142.05h40.01v3.26h-40.01z" transform="matrix(.79228964 -.61014516 .61014516 .79228964 -61.47 106.77)"/><path d="m71.28 162.08h40.01v3.26h-40.01z" transform="matrix(.92387953 -.38268343 .38268343 .92387953 -55.7 47.4)"/></g><path d="m130.51 94.6s-14.51-12.46-30.9-12.88c0 0 22.44 19.86 28.56 34 3.22 6.48 22.61 42.7 20.27 54 11.46-10.8-17.93-75.12-17.93-75.12z" fill="#dedfe0"/><path d="m66.44 152.34s-13.54-34.22-13-45c-6 14.92-8.56 22.15-4.8 34.05 9.18 11.37 15.76 16.43 15.76 16.43z" fill="#dedfe0"/><path d="m101.66 141.53-3.86 2.23a1.1 1.1 0 0 0 -.35 1.59c3.05 4.32 15.42 22.14 23.57 38.92a1.1 1.1 0 0 0 1.86.21 7.9 7.9 0 0 0 1.68-5.34 1.09 1.09 0 0 0 -.15-.47l-21.25-36.73a1.1 1.1 0 0 0 -1.5-.41z" fill="#dedfe0"/><path d="m38.6 92.51c-7.44 10.56-7.1 22.87-7.14 25.5a55.92 55.92 0 0 0 2.44 16.83c3.39 5.86 4.46 10.41 4 11.47s-6 5.84-6 5.84l-15.59-27 1.65-26 20.71-15.54z" fill="#fff"/></g><circle cx="60.18" cy="93.32" fill="url(#a)" r="6.99" transform="matrix(.86558874 -.50075556 .50075556 .86558874 -38.64 42.68)"/><g clip-path="url(#c)"><path d="m63.92 88.92-3.25 1.88.27-6.48-3.79 2.19.56 9.16 2.8-1.62 1 8.25z" fill="#5208bc"/></g><path d="m63.3 88.76-3.25 1.88.27-6.48-3.79 2.19.56 9.16 2.8-1.62 1 8.25z" fill="#ffcb39"/><path d="m103.94 113.17-26.15 15.46a6 6 0 0 1 -8.27-2.12l-6.24-10.51a6 6 0 0 1 2.12-8.27l26.16-15.51a6 6 0 0 1 8.27 2.12l6.24 10.55a6 6 0 0 1 -2.13 8.28z" fill="#d3d3d3"/><rect fill="#b5b5b5" height="2.39" rx="1.19" transform="matrix(.86074203 -.50904142 .50904142 .86074203 -48.47 55.42)" width="12.88" x="70.63" y="115.12"/><circle cx="80.97" cy="114" fill="#ffcb39" r=".95" transform="matrix(.86074203 -.50904142 .50904142 .86074203 -46.75 57.08)"/><rect fill="#b5b5b5" height="2.39" rx="1.19" transform="matrix(.86074203 -.50904142 .50904142 .86074203 -49.7 56.68)" width="12.88" x="72.33" y="117.99"/><circle cx="76.1" cy="120.76" fill="#ffcb39" r=".95" transform="matrix(.86074203 -.50904142 .50904142 .86074203 -50.87 55.55)"/><rect fill="#b5b5b5" height="2.39" rx="1.19" transform="matrix(.86074203 -.50904142 .50904142 .86074203 -50.92 57.95)" width="12.88" x="74.03" y="120.87"/><circle cx="81.91" cy="121.21" fill="#ffcb39" r=".95" transform="matrix(.86074203 -.50904142 .50904142 .86074203 -50.29 58.56)"/><g fill="#b5b5b5"><path d="m87.9 105.17h11.45v.48h-11.45z" transform="matrix(.86074203 -.50904142 .50904142 .86074203 -40.62 62.33)"/><path d="m88.3 105.84h11.45v.48h-11.45z" transform="matrix(.86074203 -.50904142 .50904142 .86074203 -40.9 62.62)"/><path d="m88.7 106.52h11.45v.48h-11.45z" transform="matrix(.86074203 -.50904142 .50904142 .86074203 -41.19 62.92)"/><path d="m89.09 107.19h11.45v.48h-11.45z" transform="matrix(.86 -.51 .51 .86 -41.48 63.22)"/><path d="m89.49 107.86h11.45v.48h-11.45z" transform="matrix(.86074203 -.50904142 .50904142 .86074203 -41.76 63.51)"/><path d="m89.89 108.53h11.45v.48h-11.45z" transform="matrix(.86074203 -.50904142 .50904142 .86074203 -42.05 63.81)"/><path d="m90.29 109.2h11.45v.48h-11.45z" transform="matrix(.86 -.51 .51 .86 -42.34 64.1)"/><path d="m90.68 109.88h11.45v.48h-11.45z" transform="matrix(.86 -.51 .51 .86 -42.62 64.4)"/><path d="m91.08 110.55h11.45v.48h-11.45z" transform="matrix(.86 -.51 .51 .86 -42.91 64.7)"/><path d="m91.48 111.22h11.45v.48h-11.45z" transform="matrix(.86 -.51 .51 .86 -43.2 64.99)"/><path d="m91.88 111.89h11.45v.48h-11.45z" transform="matrix(.86074203 -.50904142 .50904142 .86074203 -43.48 65.29)"/><path d="m92.27 112.56h11.45v.48h-11.45z" transform="matrix(.86074203 -.50904142 .50904142 .86074203 -43.77 65.58)"/></g><rect fill="url(#d)" height="5.25" rx="2.62" transform="matrix(.86074203 -.50904142 .50904142 .86074203 -42.31 56.3)" width="31.97" x="65.78" y="102.87"/><path d="m124.79 90.51h18.95v3.16h-18.95z" fill="#d3d3d3" transform="matrix(.83905059 -.5440534 .5440534 .83905059 -28.49 87.87)"/><path d="m34.4 142.43h18.95v3.16h-18.95z" fill="#d3d3d3" transform="matrix(.90370927 -.42814666 .42814666 .90370927 -57.43 32.65)"/><path d="m60.23 130.11h75.35v6.32h-75.35z" fill="#d3d3d3" transform="matrix(.86497631 -.5018127 .5018127 .86497631 -53.66 67.13)"/><rect fill="#b5b5b5" height="8.57" rx="1.32" transform="matrix(.86497631 -.5018127 .5018127 .86497631 -53.74 67.05)" width="12.63" x="91.39" y="129.1"/><circle cx="97.71" cy="133.38" fill="#fcfcfc" r="2.93" transform="matrix(.86497631 -.5018127 .5018127 .86497631 -53.74 67.05)"/><path d="m129.12 178.73 10.53 16.4a11.24 11.24 0 0 0 8.07 4.42 15.15 15.15 0 0 0 4.35-.21 18 18 0 0 0 5.6-2.12c9.16-5.25 17.65-10.09 8.59-17.5a15 15 0 0 0 -5.65-2.87c-.87-.23-1.73-.43-2.51-.61a10 10 0 0 1 -6.6-4.91l-2.11-3.75z" fill="#dedfe0"/><g clip-path="url(#e)" fill="#c4c4c4"><circle cx="158.17" cy="175.3" r="5.64" transform="matrix(.86558874 -.50075556 .50075556 .86558874 -66.52 102.76)"/><path d="m130.73 197.69 6.5-5.85a11.24 11.24 0 0 0 8.07 4.42 15.15 15.15 0 0 0 4.35-.21 18 18 0 0 0 5.6-2.12c9.16-5.25 17.65-10.09 8.59-17.5a15 15 0 0 0 -5.65-2.87c-.87-.23-1.73-.43-2.51-.61-2.8-.61 16.27.54 14.86-2l7.11 10.48-3.86 9.57-10 8.9-11.22 4.93-7 .43-6.39-2-4.44-3.17z"/></g><rect fill="#d3d3d3" height="4.96" rx="2.48" transform="matrix(-.86558874 .50075556 -.50075556 -.86558874 344.65 250.35)" width="26.62" x="125.42" y="168.94"/><path d="m139.14 179.19h1.11v9.93h-1.11z" fill="#adadad" transform="matrix(.86558874 -.50075556 .50075556 .86558874 -73.44 94.7)"/><path d="m144.13 176.31h1.11v9.93h-1.11z" fill="#adadad" transform="matrix(.86558874 -.50075556 .50075556 .86558874 -71.32 96.81)"/><path d="m141.64 177.75h1.11v9.93h-1.11z" fill="#adadad" transform="matrix(.86558874 -.50075556 .50075556 .86558874 -72.38 95.76)"/><path d="m122.22 182.72 9 17.31a11.24 11.24 0 0 1 -.19 9.2 15.15 15.15 0 0 1 -2.36 3.67 18 18 0 0 1 -4.63 3.8c-9.12 5.33-17.55 10.27-19.45-1.27a15 15 0 0 1 .33-6.33c.24-.87.48-1.71.73-2.48a10 10 0 0 0 -1-8.17l-2.2-3.69z" fill="#dedfe0"/><g clip-path="url(#f)" fill="#c4c4c4"><circle cx="104.77" cy="206.19" r="5.64" transform="matrix(.86558874 -.50075556 .50075556 .86558874 -89.16 80.17)"/><path d="m137.86 193.56-8.31 2.72a11.24 11.24 0 0 1 -.19 9.2 15.15 15.15 0 0 1 -2.36 3.67 18 18 0 0 1 -4.63 3.8c-9.12 5.33-17.55 10.27-19.45-1.27a15 15 0 0 1 .33-6.33c.24-.87.48-1.71.73-2.48.87-2.73-7.64 14.37-9.11 11.91l5.55 11.39 10.19 1.4 12.68-4.21 9.87-7.27 3.89-5.9 1.42-6.56-.53-5.43z"/></g><rect fill="#d3d3d3" height="4.96" rx="2.48" transform="matrix(.86558874 -.50075556 .50075556 .86558874 -78.91 80.82)" width="26.62" x="97.79" y="184.92"/><path d="m121.1 189.63h1.11v9.93h-1.11z" fill="#adadad" transform="matrix(-.86558874 .50075556 -.50075556 -.86558874 324.4 302.12)"/><path d="m116.11 192.52h1.11v9.93h-1.11z" fill="#adadad" transform="matrix(-.86558874 .50075556 -.50075556 -.86558874 316.54 310)"/><path d="m118.61 191.07h1.11v9.93h-1.11z" fill="#adadad" transform="matrix(-.87 .5 -.5 -.87 320.47 306.06)"/><path d="m-.21 62.39h5.87v.72h-5.87z" fill="#c6c6c6" transform="matrix(-.86558874 .50075556 -.50075556 -.86558874 36.49 115.71)"/><path d="m11.68 50.55a0 0 0 0 1 0 0v18.26a0 0 0 0 1 0 0 7.3 7.3 0 0 1 -7.3-7.3v-3.65a7.3 7.3 0 0 1 7.3-7.3z" fill="#c6c6c6" transform="matrix(.87 -.5 .5 .87 -28.81 12.04)"/><g clip-path="url(#g)" fill="#b2b2b2"><ellipse cx="34.63" cy="43.98" rx="29.49" ry="31.36" transform="matrix(.95008102 -.3120033 .3120033 .95008102 -11.99 13)"/><ellipse cx="4.89" cy="61.55" rx=".9" ry="1.8" transform="matrix(.86558874 -.50075556 .50075556 .86558874 -30.16 10.72)"/></g><path d="m81.49 15.13h5.87v.72h-5.87z" fill="#c6c6c6" transform="matrix(.86558874 -.50075556 .50075556 .86558874 3.59 44.35)"/><path d="m82.77 9.43a0 0 0 0 1 0 0v18.26a0 0 0 0 1 0 0 7.3 7.3 0 0 1 -7.3-7.3v-3.66a7.3 7.3 0 0 1 7.3-7.3z" fill="#c6c6c6" transform="matrix(-.86558874 .50075556 -.50075556 -.86558874 156.89 -4.99)"/><g clip-path="url(#h)" fill="#b2b2b2"><ellipse cx="52.87" cy="34.43" rx="29.25" ry="31.04" transform="matrix(.86558874 -.50075556 .50075556 .86558874 -10.13 31.1)"/><ellipse cx="82.25" cy="16.69" rx=".9" ry="1.8" transform="matrix(.86558874 -.50075556 .50075556 .86558874 2.7 43.43)"/></g><circle cx="43.68" cy="39.58" fill="#e8e8e8" r="38.78" transform="matrix(.87 -.5 .5 .87 -13.95 27.19)"/><g clip-path="url(#i)"><ellipse cx="45.72" cy="38.4" fill="#f2f2f2" rx="36.63" ry="38.78" transform="matrix(.87 -.5 .5 .87 -13.08 28.05)"/><ellipse cx="45.71" cy="38.24" fill="#fff" rx="36.55" ry="38.78" transform="matrix(.86558874 -.50075556 .50075556 .86558874 -13 28.03)"/><ellipse cx="44.35" cy="39.03" fill="#f2f2f2" rx="34.97" ry="38.78" transform="matrix(.86558874 -.50075556 .50075556 .86558874 -13.58 27.45)"/></g><path d="m68 25.49c7.78 13.45 3.6 29.1-9.85 36.88s-31.05 4.75-38.83-8.7-1.63-30.24 11.82-38 29.11-3.67 36.86 9.82z" fill="#7f1bbf"/><path d="m67.61 24.72c7.53 13 4.26 27.7-7.7 34.62a26.11 26.11 0 0 1 -26.15-45.2c11.96-6.92 26.32-2.43 33.85 10.58z" fill="url(#j)"/><path d="m45.16 11.75c9.13 0 17.72 4.84 22.87 13.74 7.78 13.45 3.6 29.1-9.85 36.88a31.21 31.21 0 0 1 -15.59 4.22c-9.34 0-18.31-4.34-23.27-12.92-7.78-13.45-1.63-30.24 11.82-38a27.93 27.93 0 0 1 14-3.89m0-5a33.11 33.11 0 0 0 -16.51 4.57c-16.34 9.43-22.47 29.55-13.63 44.82 5.58 9.65 15.9 15.42 27.6 15.42a36.19 36.19 0 0 0 18.08-4.89 32 32 0 0 0 15.22-19.35 32 32 0 0 0 -3.54-24.35c-5.88-10.17-16-16.24-27.2-16.24z" fill="#d8d8d8"/><path d="m40.09 66.57h44.2a7.68 7.68 0 0 1 7.71 7.68v1.75a0 0 0 0 1 0 0h-59.59a0 0 0 0 1 0 0v-1.75a7.68 7.68 0 0 1 7.68-7.68z" fill="#c6c6c6" transform="matrix(.86558874 -.50075556 .50075556 .86558874 -27.35 40.72)"/><path d="m35.38 65.4h52.27a3.65 3.65 0 0 1 3.64 3.6v5.83a0 0 0 0 1 0 0h-59.56a0 0 0 0 1 0 0v-5.83a3.65 3.65 0 0 1 3.65-3.6z" fill="#d8d8d8" transform="matrix(.86558874 -.50075556 .50075556 .86558874 -26.85 40.23)"/><circle cx="40.69" cy="82.44" fill="#b5b5b5" r="2.26" transform="matrix(.86558874 -.50075556 .50075556 .86558874 -35.81 31.45)"/><circle cx="47.66" cy="78.41" fill="#b5b5b5" r="2.26" transform="matrix(.86558874 -.50075556 .50075556 .86558874 -32.86 34.4)"/><circle cx="54.62" cy="74.38" fill="#b5b5b5" r="2.26" transform="matrix(.86558874 -.50075556 .50075556 .86558874 -29.9 37.35)"/><circle cx="61.59" cy="70.35" fill="#b5b5b5" r="2.26" transform="matrix(.86558874 -.50075556 .50075556 .86558874 -26.95 40.29)"/><circle cx="68.55" cy="66.32" fill="#b5b5b5" r="2.26" transform="matrix(.86558874 -.50075556 .50075556 .86558874 -24 43.24)"/><circle cx="75.52" cy="62.29" fill="#b5b5b5" r="2.26" transform="matrix(.86558874 -.50075556 .50075556 .86558874 -21.04 46.19)"/><circle cx="82.48" cy="58.26" fill="#b5b5b5" r="2.26" transform="matrix(.86558874 -.50075556 .50075556 .86558874 -18.09 49.13)"/></svg>