<svg viewBox="0 0 1280 1200.79" xmlns="http://www.w3.org/2000/svg"><circle cx="683.82" cy="963.26" fill="#fff" opacity=".3" r="4.06"/><circle cx="1069.31" cy="912.12" fill="#fff" opacity=".3" r="4.06"/><circle cx="294.27" cy="453.34" fill="#66baf2" opacity=".3" r="4.06"/><g fill="#fff"><circle cx="1275.94" cy="40.66" opacity=".3" r="4.06"/><circle cx="1215.06" cy="218.57" opacity=".3" r="4.06"/><circle cx="652.22" cy="28.49" opacity=".3" r="4.06"/><circle cx="777.57" cy="241.13" opacity=".3" r="4.06"/><circle cx="332.83" cy="4.06" opacity=".3" r="4.06"/><circle cx="4.06" cy="260.78" opacity=".3" r="4.06"/><circle cx="166.41" cy="107.25" opacity=".3" r="4.06"/><circle cx="1275.94" cy="954.96" opacity=".3" r="4.06"/><circle cx="1018.93" cy="77.2" opacity=".3" r="4.06"/></g><circle cx="484.62" cy="157.49" fill="#66baf2" opacity=".62" r="4.06"/><circle cx="1259.71" cy="1196.73" fill="#fff" opacity=".3" r="4.06"/><circle cx="80.59" cy="434.82" fill="#fff" opacity=".3" r="4.06"/><circle cx="1241.44" cy="414.63" fill="#66baf2" opacity=".3" r="4.06"/><circle cx="855.41" cy="111.31" fill="#fff" opacity=".3" r="4.06"/><circle cx="64.36" cy="846.09" fill="#fff" opacity=".3" r="4.06"/><circle cx="131.04" cy="1186.11" fill="#fff" opacity=".3" r="4.06"/><circle cx="331.67" cy="1023.77" fill="#fff" opacity=".3" r="4.06"/><circle cx="1179.77" cy="625.84" fill="#66baf2" opacity=".3" r="3.56"/><circle cx="250.33" cy="701.86" fill="#fff" opacity=".3" r="3.56"/><circle cx="349.59" cy="908.56" fill="#66baf2" opacity=".62" r="3.56"/><circle cx="639.33" cy="647.86" fill="#fff" opacity=".3" r="3.56"/><circle cx="824.33" cy="752.86" fill="#fff" opacity=".3" r="3.56"/></svg>